<svg id="svg" version="1.1" xmlns="http://www.w3.org/2000/svg" xmlns:xlink="http://www.w3.org/1999/xlink" width="1em" height="1em" viewBox="0, 0, 400,400">
	<g id="svgg">
		<path id="path0" d="M25.200 217.840 L 25.200 316.891 26.047 318.398 C 26.513 319.227,27.573 320.287,28.402 320.753 L 29.909 321.600 199.770 321.600 C 366.453 321.600,369.660 321.586,371.116 320.832 C 372.766 319.979,374.000 318.690,374.000 317.819 C 374.000 317.505,374.180 317.136,374.400 317.000 C 374.665 316.836,374.800 284.930,374.800 222.579 L 374.800 128.405 241.900 128.302 L 109.000 128.200 107.142 127.309 C 104.665 126.122,102.217 123.707,100.864 121.117 L 99.758 119.000 87.269 118.894 C 75.636 118.796,74.763 118.837,74.547 119.494 C 70.951 130.411,56.233 131.395,50.844 121.078 L 49.758 119.000 37.479 118.894 L 25.200 118.788 25.200 217.840 M78.915 159.740 C 82.398 160.952,85.848 164.402,87.060 167.885 C 87.469 169.060,87.589 173.870,87.594 189.300 L 87.600 209.200 100.000 209.200 L 112.400 209.200 112.400 201.411 C 112.400 192.191,112.819 190.694,116.270 187.594 C 122.725 181.796,132.969 183.900,136.566 191.762 L 137.600 194.024 137.600 234.400 L 137.600 274.776 136.618 276.923 C 132.024 286.968,117.549 286.933,113.156 276.867 C 112.447 275.242,112.400 273.868,112.400 254.967 L 112.400 234.800 107.700 234.763 C 81.722 234.556,79.305 234.250,73.517 230.430 C 68.100 226.855,65.144 222.735,62.856 215.572 C 61.915 212.626,62.244 168.723,63.223 166.641 C 64.833 163.215,66.726 161.562,71.200 159.676 C 72.618 159.078,77.122 159.115,78.915 159.740 M212.400 159.758 C 223.519 162.146,232.458 169.939,235.890 180.235 C 237.613 185.404,237.600 185.088,237.600 221.800 C 237.600 258.521,237.615 258.162,235.886 263.400 C 232.633 273.259,224.428 280.792,213.907 283.580 C 209.891 284.645,190.342 284.799,186.103 283.799 C 175.428 281.282,165.860 271.818,163.055 261.000 C 162.436 258.613,162.227 186.372,162.832 184.000 C 165.382 174.002,171.865 165.751,180.000 162.150 C 183.077 160.788,184.348 160.359,187.400 159.653 C 190.088 159.031,209.393 159.112,212.400 159.758 M278.915 159.740 C 282.398 160.952,285.848 164.402,287.060 167.885 C 287.469 169.060,287.589 173.870,287.594 189.300 L 287.600 209.200 300.000 209.200 L 312.400 209.200 312.400 201.411 C 312.400 192.191,312.819 190.694,316.270 187.594 C 322.725 181.796,332.969 183.900,336.566 191.762 L 337.600 194.024 337.600 234.400 L 337.600 274.776 336.618 276.923 C 332.024 286.968,317.549 286.933,313.156 276.867 C 312.447 275.242,312.400 273.868,312.400 254.967 L 312.400 234.800 307.700 234.763 C 281.722 234.556,279.305 234.250,273.517 230.430 C 268.100 226.855,265.144 222.735,262.856 215.572 C 261.915 212.626,262.244 168.723,263.223 166.641 C 264.833 163.215,266.726 161.562,271.200 159.676 C 272.618 159.078,277.122 159.115,278.915 159.740 M192.200 184.963 C 190.088 185.732,189.407 186.291,188.493 188.002 L 187.600 189.676 187.600 221.819 C 187.600 255.538,187.578 255.093,189.376 257.135 C 192.169 260.305,207.708 260.182,210.504 256.967 C 212.367 254.824,212.387 254.445,212.394 221.846 C 212.401 186.201,212.438 186.528,208.234 185.241 C 206.353 184.665,193.624 184.444,192.200 184.963 " stroke="none" fill="#f7f7f7" fill-rule="evenodd">
		</path>
		<path id="path1" d="M28.808 78.846 C 25.245 80.268,25.200 80.545,25.200 101.049 L 25.200 118.800 37.547 118.800 L 49.895 118.800 49.895 115.696 C 49.895 101.542,69.412 98.217,74.415 111.519 C 75.056 113.226,75.233 114.430,75.117 116.300 L 74.962 118.800 87.428 118.800 L 99.895 118.800 99.895 115.696 C 99.895 110.385,102.641 106.123,107.513 103.872 L 109.400 103.000 242.100 102.895 L 374.800 102.789 374.800 93.190 C 374.800 81.908,374.511 80.706,371.438 79.219 L 369.747 78.400 199.774 78.425 C 88.683 78.442,29.456 78.588,28.808 78.846 " stroke="none" fill="#f18a8a" fill-rule="evenodd">
		</path>
		<path id="path2" d="M24.000 53.200 C 24.000 53.420,23.280 53.600,22.400 53.600 C 21.520 53.600,20.800 53.780,20.800 54.000 C 20.800 54.220,20.455 54.400,20.033 54.400 C 19.612 54.400,19.207 54.578,19.133 54.797 C 19.060 55.015,18.518 55.233,17.929 55.281 C 17.340 55.330,16.945 55.512,17.052 55.685 C 17.160 55.858,16.776 56.000,16.200 56.000 C 15.604 56.000,15.259 56.172,15.400 56.400 C 15.536 56.620,15.367 56.800,15.024 56.800 C 14.681 56.800,14.400 56.980,14.400 57.200 C 14.400 57.420,14.149 57.600,13.842 57.600 C 13.536 57.600,12.732 58.116,12.056 58.747 C 11.381 59.378,10.765 59.832,10.689 59.755 C 10.459 59.525,7.600 62.364,7.600 62.823 C 7.600 63.056,7.433 63.144,7.229 63.018 C 7.025 62.892,6.741 63.157,6.598 63.607 C 6.455 64.057,5.902 64.862,5.369 65.395 C 4.836 65.928,4.400 66.642,4.400 66.982 C 4.400 67.322,4.220 67.600,4.000 67.600 C 3.780 67.600,3.600 67.881,3.600 68.224 C 3.600 68.567,3.416 68.733,3.190 68.594 C 2.965 68.455,2.806 68.489,2.837 68.670 C 2.995 69.578,2.755 70.419,2.400 70.200 C 2.174 70.060,2.000 70.388,2.000 70.953 C 2.000 71.503,1.820 72.064,1.600 72.200 C 1.380 72.336,1.200 72.797,1.200 73.224 C 1.200 73.651,1.058 74.000,0.885 74.000 C 0.230 74.000,0.200 79.581,0.200 200.000 C 0.200 320.419,0.230 326.000,0.885 326.000 C 1.058 326.000,1.200 326.349,1.200 326.776 C 1.200 327.203,1.380 327.664,1.600 327.800 C 1.820 327.936,2.000 328.497,2.000 329.047 C 2.000 329.612,2.174 329.940,2.400 329.800 C 2.755 329.581,2.995 330.422,2.837 331.330 C 2.806 331.511,2.965 331.545,3.190 331.406 C 3.416 331.267,3.600 331.433,3.600 331.776 C 3.600 332.119,3.780 332.400,4.000 332.400 C 4.220 332.400,4.400 332.625,4.400 332.900 C 4.401 333.175,4.846 333.917,5.389 334.549 C 5.933 335.181,6.485 336.038,6.617 336.455 C 6.749 336.871,7.025 337.108,7.229 336.982 C 7.433 336.856,7.600 336.964,7.600 337.222 C 7.600 337.713,10.439 340.495,10.686 340.247 C 10.764 340.169,11.381 340.622,12.056 341.253 C 12.732 341.884,13.536 342.400,13.842 342.400 C 14.149 342.400,14.400 342.580,14.400 342.800 C 14.400 343.020,14.681 343.200,15.024 343.200 C 15.393 343.200,15.531 343.388,15.362 343.662 C 15.193 343.936,15.251 344.015,15.506 343.858 C 15.742 343.712,16.175 343.819,16.468 344.096 C 16.760 344.373,17.450 344.662,18.000 344.738 C 18.550 344.814,19.060 345.039,19.133 345.238 C 19.207 345.437,19.712 345.600,20.257 345.600 C 20.802 345.600,21.158 345.744,21.049 345.920 C 20.941 346.096,21.515 346.284,22.326 346.337 C 23.137 346.391,23.860 346.607,23.933 346.818 C 24.116 347.340,375.884 347.340,376.067 346.818 C 376.140 346.607,376.863 346.391,377.674 346.337 C 378.485 346.284,379.059 346.096,378.951 345.920 C 378.842 345.744,379.090 345.600,379.501 345.600 C 379.913 345.600,380.976 345.249,381.863 344.821 C 382.750 344.392,383.728 343.987,384.038 343.921 C 384.347 343.854,384.891 343.485,385.247 343.100 C 385.603 342.715,386.123 342.400,386.404 342.400 C 386.684 342.400,387.414 341.876,388.026 341.236 C 388.638 340.596,389.210 340.143,389.297 340.230 C 389.556 340.490,392.400 337.733,392.400 337.222 C 392.400 336.964,392.567 336.856,392.771 336.982 C 392.975 337.108,393.251 336.871,393.383 336.455 C 393.515 336.038,394.067 335.181,394.611 334.549 C 395.154 333.917,395.599 333.175,395.600 332.900 C 395.600 332.625,395.780 332.400,396.000 332.400 C 396.220 332.400,396.400 332.119,396.400 331.776 C 396.400 331.433,396.584 331.267,396.810 331.406 C 397.035 331.545,397.194 331.511,397.163 331.330 C 397.005 330.422,397.245 329.581,397.600 329.800 C 397.826 329.940,398.000 329.612,398.000 329.047 C 398.000 328.497,398.180 327.936,398.400 327.800 C 398.620 327.664,398.800 327.203,398.800 326.776 C 398.800 326.349,398.942 326.000,399.115 326.000 C 399.770 326.000,399.800 320.419,399.800 200.000 C 399.800 79.581,399.770 74.000,399.115 74.000 C 398.942 74.000,398.800 73.651,398.800 73.224 C 398.800 72.797,398.620 72.336,398.400 72.200 C 398.180 72.064,398.000 71.503,398.000 70.953 C 398.000 70.388,397.826 70.060,397.600 70.200 C 397.245 70.419,397.005 69.578,397.163 68.670 C 397.194 68.489,397.035 68.455,396.810 68.594 C 396.584 68.733,396.400 68.567,396.400 68.224 C 396.400 67.881,396.220 67.600,396.000 67.600 C 395.780 67.600,395.600 67.375,395.600 67.100 C 395.599 66.825,395.154 66.083,394.611 65.451 C 394.067 64.819,393.515 63.962,393.383 63.545 C 393.251 63.129,392.975 62.892,392.771 63.018 C 392.567 63.144,392.395 63.012,392.388 62.724 C 392.381 62.436,391.886 61.793,391.288 61.296 C 388.565 59.035,386.559 57.607,386.100 57.604 C 385.825 57.602,385.600 57.420,385.600 57.200 C 385.600 56.980,385.319 56.800,384.976 56.800 C 384.607 56.800,384.469 56.612,384.638 56.338 C 384.807 56.064,384.749 55.985,384.494 56.142 C 384.258 56.288,383.825 56.181,383.532 55.904 C 383.240 55.627,382.640 55.340,382.200 55.267 C 381.760 55.193,381.229 54.968,381.020 54.767 C 380.811 54.565,380.316 54.400,379.920 54.400 C 379.524 54.400,379.200 54.220,379.200 54.000 C 379.200 53.780,378.480 53.600,377.600 53.600 C 376.720 53.600,376.000 53.420,376.000 53.200 C 376.000 52.934,317.067 52.800,200.000 52.800 C 82.933 52.800,24.000 52.934,24.000 53.200 M371.314 78.590 C 374.809 80.050,375.270 81.867,375.120 93.600 L 375.000 103.000 242.400 103.200 C 169.470 103.310,109.440 103.554,109.000 103.743 C 106.134 104.971,105.360 105.419,104.031 106.619 C 96.693 113.249,100.128 124.822,110.246 127.555 C 111.439 127.877,148.191 128.000,243.546 128.000 L 375.200 128.000 375.200 222.806 L 375.200 317.611 374.331 318.937 C 373.853 319.666,372.866 320.653,372.137 321.131 L 370.811 322.000 200.000 322.000 C 64.083 322.000,29.011 321.898,28.317 321.500 C 27.202 320.861,25.939 319.598,25.300 318.483 C 24.480 317.053,24.576 83.372,25.397 81.726 C 26.048 80.420,27.106 79.347,28.503 78.575 C 29.970 77.763,369.372 77.778,371.314 78.590 M59.400 103.761 C 50.669 106.249,47.399 115.493,52.696 122.712 C 58.697 130.889,70.939 128.658,74.313 118.772 C 77.185 110.354,68.155 101.265,59.400 103.761 M72.200 160.097 C 67.772 161.615,65.017 164.105,63.613 167.856 C 62.564 170.661,62.346 209.267,63.353 214.000 C 65.258 222.953,71.255 229.747,80.000 232.858 C 82.493 233.745,83.219 233.792,97.600 233.992 L 112.600 234.200 112.829 254.400 C 113.079 276.454,113.002 275.655,115.161 278.805 C 120.786 287.014,133.274 284.978,136.456 275.332 C 137.496 272.178,137.611 196.613,136.580 193.652 C 132.471 181.853,118.101 181.698,113.349 193.400 C 113.171 193.840,112.929 197.620,112.812 201.800 L 112.600 209.400 100.000 209.400 L 87.400 209.400 87.200 189.400 C 87.090 178.400,86.846 169.040,86.657 168.600 C 86.469 168.160,86.046 167.196,85.719 166.459 C 83.614 161.718,76.810 158.516,72.200 160.097 M189.000 160.069 C 185.652 160.702,184.142 161.189,180.654 162.759 C 171.532 166.863,165.264 175.174,163.257 185.824 C 162.513 189.774,162.624 254.492,163.382 258.400 C 164.876 266.104,168.649 272.641,174.002 276.803 C 174.991 277.571,175.890 278.302,176.000 278.426 C 181.528 284.684,208.764 286.202,219.586 280.856 C 228.961 276.224,234.579 268.694,236.621 258.023 C 237.338 254.279,237.489 189.671,236.789 186.477 C 236.562 185.445,236.185 183.700,235.951 182.600 C 234.295 174.833,227.092 166.226,219.381 162.800 C 216.010 161.303,214.359 160.771,211.200 160.164 C 208.946 159.731,191.188 159.655,189.000 160.069 M272.200 160.097 C 267.772 161.615,265.017 164.105,263.613 167.856 C 262.564 170.661,262.346 209.267,263.353 214.000 C 265.258 222.953,271.255 229.747,280.000 232.858 C 282.493 233.745,283.219 233.792,297.600 233.992 L 312.600 234.200 312.829 254.400 C 313.079 276.454,313.002 275.655,315.161 278.805 C 320.786 287.014,333.274 284.978,336.456 275.332 C 337.496 272.178,337.611 196.613,336.580 193.652 C 332.471 181.853,318.101 181.698,313.349 193.400 C 313.171 193.840,312.929 197.620,312.812 201.800 L 312.600 209.400 300.000 209.400 L 287.400 209.400 287.200 189.400 C 287.090 178.400,286.846 169.040,286.657 168.600 C 286.469 168.160,286.046 167.196,285.719 166.459 C 283.614 161.718,276.810 158.516,272.200 160.097 M209.062 184.772 C 210.205 185.291,211.047 186.079,211.762 187.298 L 212.800 189.070 212.800 221.874 C 212.800 257.298,212.877 255.965,210.710 257.821 C 208.720 259.525,208.268 259.600,200.000 259.600 C 191.732 259.600,191.280 259.525,189.290 257.821 C 187.122 255.965,187.200 257.304,187.200 221.800 C 187.200 184.233,186.936 186.813,191.000 184.666 C 192.920 183.652,206.773 183.733,209.062 184.772 " stroke="none" fill="#4c4c4c" fill-rule="evenodd">
		</path>
		<path id="path3" d="M29.062 78.300 C 28.960 78.465,105.571 78.554,199.309 78.499 L 369.742 78.397 371.436 79.217 C 374.511 80.706,374.800 81.905,374.800 93.195 L 374.800 102.799 243.500 102.900 L 112.200 103.002 243.600 103.001 L 375.000 103.000 375.120 93.600 C 375.270 81.867,374.809 80.050,371.314 78.590 C 369.772 77.946,29.459 77.657,29.062 78.300 M26.775 79.900 C 24.744 82.192,24.794 81.631,24.892 100.895 L 24.984 119.000 25.192 100.800 C 25.413 81.449,25.438 81.215,27.424 79.653 C 28.020 79.184,28.337 78.800,28.129 78.800 C 27.920 78.800,27.311 79.295,26.775 79.900 M58.600 103.600 L 57.800 103.944 58.600 103.944 C 59.040 103.944,59.760 103.789,60.200 103.600 L 61.000 103.256 60.200 103.256 C 59.760 103.256,59.040 103.411,58.600 103.600 M65.400 103.662 C 72.393 105.984,76.491 113.088,74.248 119.000 C 74.064 119.486,74.186 119.407,74.558 118.800 C 77.447 114.091,70.662 103.015,65.021 103.232 C 64.411 103.255,64.508 103.366,65.400 103.662 M107.324 103.979 C 103.736 105.607,99.950 110.401,100.040 113.200 C 100.066 114.023,100.139 113.952,100.451 112.800 C 101.713 108.137,104.464 105.330,109.400 103.667 C 110.245 103.383,110.364 103.256,109.800 103.240 C 109.360 103.228,108.246 103.560,107.324 103.979 M56.200 104.626 C 53.230 106.163,49.960 110.714,50.040 113.200 C 50.066 114.023,50.139 113.952,50.451 112.800 C 51.371 109.402,54.927 104.800,56.633 104.800 C 56.919 104.800,57.264 104.620,57.400 104.400 C 57.726 103.872,57.616 103.893,56.200 104.626 M72.537 122.199 C 71.912 123.189,71.265 123.999,71.100 123.999 C 70.935 124.000,70.806 124.225,70.814 124.500 C 70.831 125.090,72.586 123.079,73.431 121.500 C 74.357 119.771,73.791 120.214,72.537 122.199 M69.200 125.600 C 68.650 126.030,68.397 126.386,68.638 126.391 C 68.879 126.396,69.402 126.040,69.800 125.600 C 70.712 124.592,70.488 124.592,69.200 125.600 M59.400 127.600 C 59.840 127.789,60.470 127.944,60.800 127.944 C 61.178 127.944,61.104 127.817,60.600 127.600 C 60.160 127.411,59.530 127.256,59.200 127.256 C 58.822 127.256,58.896 127.383,59.400 127.600 M64.200 127.600 L 63.400 127.944 64.200 127.944 C 64.640 127.944,65.360 127.789,65.800 127.600 L 66.600 127.256 65.800 127.256 C 65.360 127.256,64.640 127.411,64.200 127.600 M109.000 127.600 C 109.440 127.789,110.160 127.944,110.600 127.944 L 111.400 127.944 110.600 127.600 C 110.160 127.411,109.440 127.256,109.000 127.256 L 108.200 127.256 109.000 127.600 M71.400 160.000 L 70.600 160.344 71.400 160.366 C 71.840 160.378,72.470 160.213,72.800 160.000 C 73.595 159.486,72.596 159.486,71.400 160.000 M77.200 160.000 C 77.530 160.213,78.160 160.378,78.600 160.366 L 79.400 160.344 78.600 160.000 C 77.404 159.486,76.405 159.486,77.200 160.000 M187.800 160.000 L 186.600 160.305 187.800 160.313 C 188.460 160.317,189.450 160.176,190.000 160.000 L 191.000 159.680 190.000 159.687 C 189.450 159.691,188.460 159.832,187.800 160.000 M209.800 160.000 C 210.240 160.189,211.140 160.335,211.800 160.325 L 213.000 160.305 211.800 160.000 C 211.140 159.832,210.240 159.686,209.800 159.675 L 209.000 159.656 209.800 160.000 M271.400 160.000 L 270.600 160.344 271.400 160.366 C 271.840 160.378,272.470 160.213,272.800 160.000 C 273.595 159.486,272.596 159.486,271.400 160.000 M277.200 160.000 C 277.530 160.213,278.160 160.378,278.600 160.366 L 279.400 160.344 278.600 160.000 C 277.404 159.486,276.405 159.486,277.200 160.000 M68.146 161.540 C 65.450 163.493,62.792 167.323,62.830 169.200 C 62.836 169.530,63.198 168.874,63.633 167.743 C 64.587 165.261,67.061 162.347,68.989 161.432 C 70.359 160.782,70.755 160.400,70.060 160.400 C 69.873 160.400,69.012 160.913,68.146 161.540 M214.000 160.782 C 214.330 161.005,214.945 161.191,215.367 161.194 C 216.390 161.202,216.071 160.973,214.600 160.644 C 213.724 160.448,213.562 160.485,214.000 160.782 M268.146 161.540 C 265.450 163.493,262.792 167.323,262.830 169.200 C 262.836 169.530,263.198 168.874,263.633 167.743 C 264.587 165.261,267.061 162.347,268.989 161.432 C 270.359 160.782,270.755 160.400,270.060 160.400 C 269.873 160.400,269.012 160.913,268.146 161.540 M82.817 162.706 C 84.526 164.226,85.783 166.230,86.765 169.000 L 87.191 170.200 86.947 168.827 C 86.506 166.335,83.888 162.615,81.800 161.512 C 81.360 161.279,81.818 161.817,82.817 162.706 M179.722 162.815 C 178.005 163.703,176.330 164.701,176.000 165.031 C 175.670 165.362,176.836 164.816,178.590 163.817 C 180.345 162.817,182.089 162.000,182.467 162.000 C 182.844 162.000,183.264 161.820,183.400 161.600 C 183.856 160.862,182.863 161.190,179.722 162.815 M282.817 162.706 C 284.526 164.226,285.783 166.230,286.765 169.000 L 287.191 170.200 286.947 168.827 C 286.506 166.335,283.888 162.615,281.800 161.512 C 281.360 161.279,281.818 161.817,282.817 162.706 M223.273 164.987 C 224.738 165.970,226.052 166.960,226.192 167.187 C 226.332 167.414,226.630 167.600,226.854 167.600 C 227.078 167.600,226.753 167.181,226.131 166.670 C 224.501 165.329,221.311 163.200,220.932 163.200 C 220.754 163.200,221.807 164.004,223.273 164.987 M172.628 167.644 C 171.399 168.768,170.017 170.253,169.559 170.944 C 168.967 171.835,169.171 171.701,170.263 170.481 C 171.108 169.536,172.610 168.054,173.600 167.187 C 174.590 166.321,175.280 165.610,175.132 165.606 C 174.985 165.603,173.858 166.520,172.628 167.644 M229.670 170.778 C 230.181 171.426,230.749 171.966,230.930 171.978 C 231.112 171.990,230.842 171.470,230.330 170.822 C 229.819 170.174,229.251 169.634,229.070 169.622 C 228.888 169.610,229.158 170.130,229.670 170.778 M62.586 191.000 C 62.586 202.660,62.637 207.372,62.700 201.472 C 62.762 195.571,62.762 186.031,62.700 180.272 C 62.637 174.512,62.586 179.340,62.586 191.000 M262.586 191.000 C 262.586 202.660,262.637 207.372,262.700 201.472 C 262.762 195.571,262.762 186.031,262.700 180.272 C 262.637 174.512,262.586 179.340,262.586 191.000 M87.290 189.876 C 87.240 200.478,87.335 209.236,87.500 209.338 C 87.773 209.507,87.767 194.789,87.489 177.400 C 87.429 173.660,87.339 179.274,87.290 189.876 M287.290 189.876 C 287.240 200.478,287.335 209.236,287.500 209.338 C 287.773 209.507,287.767 194.789,287.489 177.400 C 287.429 173.660,287.339 179.274,287.290 189.876 M167.798 173.202 C 167.398 173.644,167.166 174.099,167.282 174.215 C 167.397 174.330,167.790 173.969,168.155 173.412 C 168.952 172.196,168.793 172.102,167.798 173.202 M165.426 177.700 C 164.084 180.646,163.181 183.583,163.982 182.400 C 164.205 182.070,164.391 181.563,164.394 181.274 C 164.397 180.984,165.018 179.409,165.774 177.774 C 166.530 176.138,167.058 174.800,166.948 174.800 C 166.838 174.800,166.153 176.105,165.426 177.700 M163.055 185.055 C 162.913 186.086,162.874 187.008,162.969 187.102 C 163.063 187.196,163.265 186.439,163.418 185.418 C 163.571 184.398,163.610 183.476,163.504 183.371 C 163.398 183.265,163.196 184.023,163.055 185.055 M236.440 184.633 C 236.462 185.275,236.633 186.250,236.820 186.800 C 237.049 187.474,237.084 187.149,236.928 185.800 C 236.669 183.550,236.379 182.859,236.440 184.633 M195.921 184.299 C 198.188 184.370,201.788 184.370,203.921 184.298 C 206.055 184.226,204.200 184.168,199.800 184.168 C 195.400 184.168,193.655 184.227,195.921 184.299 M122.315 184.728 C 121.938 184.878,123.146 185.000,125.000 185.000 C 126.854 185.000,128.062 184.878,127.685 184.728 C 127.308 184.579,126.100 184.456,125.000 184.456 C 123.900 184.456,122.692 184.579,122.315 184.728 M209.257 185.263 C 212.621 187.214,212.423 184.805,212.305 222.324 C 212.247 240.584,212.335 255.440,212.500 255.338 C 212.665 255.236,212.800 240.284,212.800 222.112 L 212.800 189.070 211.784 187.337 C 211.226 186.384,210.245 185.333,209.604 185.002 C 207.854 184.097,207.589 184.296,209.257 185.263 M322.315 184.728 C 321.938 184.878,323.146 185.000,325.000 185.000 C 326.854 185.000,328.062 184.878,327.685 184.728 C 327.308 184.579,326.100 184.456,325.000 184.456 C 323.900 184.456,322.692 184.579,322.315 184.728 M188.801 186.198 C 188.286 186.748,187.939 187.264,188.032 187.346 C 188.124 187.428,188.619 186.978,189.130 186.347 C 190.276 184.935,190.074 184.844,188.801 186.198 M116.739 187.561 C 114.902 189.178,113.383 191.720,113.010 193.800 L 112.795 195.000 113.228 193.800 C 114.548 190.136,115.653 188.629,118.417 186.721 C 118.957 186.348,119.200 186.033,118.956 186.021 C 118.712 186.009,117.715 186.702,116.739 187.561 M316.739 187.561 C 314.902 189.178,313.383 191.720,313.010 193.800 L 312.795 195.000 313.228 193.800 C 314.548 190.136,315.653 188.629,318.417 186.721 C 318.957 186.348,319.200 186.033,318.956 186.021 C 318.712 186.009,317.715 186.702,316.739 187.561 M162.591 221.800 C 162.591 240.720,162.640 248.401,162.700 238.870 C 162.760 229.338,162.760 213.858,162.700 204.470 C 162.640 195.081,162.591 202.880,162.591 221.800 M187.467 188.267 C 187.096 188.637,187.129 255.109,187.500 255.338 C 187.665 255.440,187.800 240.331,187.800 221.762 C 187.800 203.193,187.785 188.000,187.767 188.000 C 187.748 188.000,187.613 188.120,187.467 188.267 M134.000 188.528 C 134.000 188.658,134.450 189.427,134.999 190.237 C 135.549 191.047,136.186 192.405,136.415 193.255 C 136.885 195.002,137.358 195.394,136.951 193.700 C 136.536 191.967,134.000 187.524,134.000 188.528 M334.000 188.528 C 334.000 188.658,334.450 189.427,334.999 190.237 C 335.549 191.047,336.186 192.405,336.415 193.255 C 336.885 195.002,337.358 195.394,336.951 193.700 C 336.536 191.967,334.000 187.524,334.000 188.528 M237.391 221.800 C 237.391 239.840,237.440 247.162,237.500 238.070 C 237.560 228.979,237.560 214.219,237.500 205.270 C 237.440 196.322,237.391 203.760,237.391 221.800 M112.490 202.090 L 112.400 209.180 106.100 209.301 L 99.800 209.422 106.113 209.511 C 113.605 209.617,112.854 210.497,112.700 201.785 L 112.579 195.000 112.490 202.090 M312.490 202.090 L 312.400 209.180 306.100 209.301 L 299.800 209.422 306.113 209.511 C 313.605 209.617,312.854 210.497,312.700 201.785 L 312.579 195.000 312.490 202.090 M137.392 234.400 C 137.392 255.850,137.441 264.625,137.500 253.900 C 137.559 243.175,137.559 225.625,137.500 214.900 C 137.441 204.175,137.392 212.950,137.392 234.400 M337.392 234.400 C 337.392 255.850,337.441 264.625,337.500 253.900 C 337.559 243.175,337.559 225.625,337.500 214.900 C 337.441 204.175,337.392 212.950,337.392 234.400 M62.887 213.000 C 62.891 213.440,63.032 214.340,63.200 215.000 C 63.474 216.078,63.506 216.098,63.513 215.200 C 63.517 214.650,63.376 213.750,63.200 213.200 C 62.949 212.416,62.881 212.373,62.887 213.000 M262.887 213.000 C 262.891 213.440,263.032 214.340,263.200 215.000 C 263.474 216.078,263.506 216.098,263.513 215.200 C 263.517 214.650,263.376 213.750,263.200 213.200 C 262.949 212.416,262.881 212.373,262.887 213.000 M63.846 217.200 C 64.304 219.031,66.430 223.104,67.321 223.857 C 68.189 224.591,68.192 224.590,67.538 223.800 C 66.965 223.107,65.755 220.809,64.064 217.200 L 63.596 216.200 63.846 217.200 M263.846 217.200 C 264.304 219.031,266.430 223.104,267.321 223.857 C 268.189 224.591,268.192 224.590,267.538 223.800 C 266.965 223.107,265.755 220.809,264.064 217.200 L 263.596 216.200 263.846 217.200 M68.811 225.826 C 70.401 227.797,75.600 231.778,75.600 231.024 C 75.600 230.912,75.064 230.543,74.408 230.204 C 73.753 229.865,72.003 228.466,70.519 227.094 C 69.036 225.722,68.267 225.152,68.811 225.826 M268.811 225.826 C 270.401 227.797,275.600 231.778,275.600 231.024 C 275.600 230.912,275.064 230.543,274.408 230.204 C 273.753 229.865,272.003 228.466,270.519 227.094 C 269.036 225.722,268.267 225.152,268.811 225.826 M80.000 233.182 C 80.330 233.405,80.945 233.591,81.367 233.594 C 82.390 233.602,82.071 233.373,80.600 233.044 C 79.724 232.848,79.562 232.885,80.000 233.182 M280.000 233.182 C 280.330 233.405,280.945 233.591,281.367 233.594 C 282.390 233.602,282.071 233.373,280.600 233.044 C 279.724 232.848,279.562 232.885,280.000 233.182 M98.496 234.297 L 112.392 234.410 112.502 253.905 L 112.611 273.400 112.606 253.800 L 112.600 234.200 98.600 234.192 L 84.600 234.184 98.496 234.297 M298.496 234.297 L 312.392 234.410 312.502 253.905 L 312.611 273.400 312.606 253.800 L 312.600 234.200 298.600 234.192 L 284.600 234.184 298.496 234.297 M188.000 256.359 C 188.000 256.731,190.354 258.999,190.503 258.771 C 190.564 258.677,190.026 258.030,189.307 257.334 C 188.588 256.638,188.000 256.199,188.000 256.359 M210.534 257.493 C 209.838 258.212,209.399 258.800,209.559 258.800 C 209.931 258.800,212.199 256.446,211.971 256.297 C 211.877 256.236,211.230 256.774,210.534 257.493 M236.454 258.834 C 236.380 260.244,234.931 264.569,233.754 266.891 C 233.222 267.941,232.877 268.800,232.987 268.800 C 233.814 268.800,236.968 260.197,236.684 258.715 C 236.521 257.863,236.505 257.871,236.454 258.834 M163.206 259.433 C 163.209 260.075,163.384 260.870,163.595 261.200 C 163.855 261.609,163.899 261.290,163.732 260.200 C 163.429 258.223,163.198 257.886,163.206 259.433 M202.200 259.200 L 195.800 259.431 202.076 259.515 C 205.923 259.567,208.448 259.445,208.600 259.200 C 208.736 258.980,208.792 258.838,208.724 258.885 C 208.656 258.931,205.720 259.073,202.200 259.200 M164.802 264.639 C 164.800 265.137,165.976 267.600,166.217 267.600 C 166.412 267.600,166.013 266.528,165.324 265.200 C 165.038 264.650,164.804 264.397,164.802 264.639 M166.400 268.183 C 166.400 268.734,169.866 273.359,171.057 274.396 C 172.143 275.343,172.137 275.323,170.951 273.996 C 170.264 273.228,169.033 271.610,168.215 270.400 C 166.524 267.898,166.400 267.747,166.400 268.183 M228.426 274.516 C 226.383 276.804,226.245 277.028,227.758 275.600 C 229.413 274.038,231.502 271.568,231.127 271.616 C 231.057 271.625,229.842 272.930,228.426 274.516 M136.590 274.871 C 136.432 275.602,136.047 276.740,135.732 277.400 C 135.206 278.505,135.211 278.538,135.789 277.812 C 136.462 276.968,137.376 274.043,137.064 273.731 C 136.961 273.627,136.747 274.141,136.590 274.871 M336.590 274.871 C 336.432 275.602,336.047 276.740,335.732 277.400 C 335.206 278.505,335.211 278.538,335.789 277.812 C 336.462 276.968,337.376 274.043,337.064 273.731 C 336.961 273.627,336.747 274.141,336.590 274.871 M113.065 275.200 C 113.287 276.520,115.616 280.516,116.473 281.045 C 116.689 281.179,116.160 280.233,115.297 278.944 C 114.434 277.655,113.526 275.970,113.278 275.200 L 112.829 273.800 113.065 275.200 M313.065 275.200 C 313.287 276.520,315.616 280.516,316.473 281.045 C 316.689 281.179,316.160 280.233,315.297 278.944 C 314.434 277.655,313.526 275.970,313.278 275.200 L 312.829 273.800 313.065 275.200 M173.984 277.155 C 174.965 278.041,175.850 278.684,175.950 278.583 C 176.051 278.482,176.058 278.353,175.967 278.296 C 175.875 278.239,174.990 277.596,174.000 276.868 L 172.200 275.543 173.984 277.155 M177.200 279.567 C 178.163 280.352,178.800 280.608,178.800 280.210 C 178.800 280.106,178.215 279.735,177.500 279.386 L 176.200 278.752 177.200 279.567 M132.000 281.683 C 131.230 282.346,130.960 282.691,131.400 282.451 C 132.609 281.790,133.763 280.829,133.571 280.643 C 133.477 280.552,132.770 281.020,132.000 281.683 M332.000 281.683 C 331.230 282.346,330.960 282.691,331.400 282.451 C 332.609 281.790,333.763 280.829,333.571 280.643 C 333.477 280.552,332.770 281.020,332.000 281.683 M117.451 281.683 C 117.737 282.146,120.800 283.673,121.144 283.523 C 121.300 283.456,120.488 282.940,119.338 282.377 C 118.189 281.814,117.339 281.502,117.451 281.683 M317.451 281.683 C 317.737 282.146,320.800 283.673,321.144 283.523 C 321.300 283.456,320.488 282.940,319.338 282.377 C 318.189 281.814,317.339 281.502,317.451 281.683 M185.400 283.200 C 185.840 283.389,186.560 283.538,187.000 283.532 C 187.643 283.523,187.604 283.457,186.800 283.200 C 185.432 282.762,184.381 282.762,185.400 283.200 M212.800 283.200 C 211.996 283.457,211.957 283.523,212.600 283.532 C 213.040 283.538,213.760 283.389,214.200 283.200 C 215.219 282.762,214.168 282.762,212.800 283.200 M200.000 284.000 L 190.600 284.222 199.800 284.264 C 204.860 284.287,209.540 284.168,210.200 284.000 C 211.219 283.741,211.249 283.701,210.400 283.736 C 209.850 283.759,205.170 283.878,200.000 284.000 M124.105 284.287 C 124.714 284.379,125.614 284.377,126.105 284.282 C 126.597 284.187,126.100 284.111,125.000 284.114 C 123.900 284.117,123.497 284.195,124.105 284.287 M324.105 284.287 C 324.714 284.379,325.614 284.377,326.105 284.282 C 326.597 284.187,326.100 284.111,325.000 284.114 C 323.900 284.117,323.497 284.195,324.105 284.287 M374.860 316.267 C 374.827 316.744,374.684 317.464,374.541 317.867 C 374.342 318.431,374.395 318.496,374.772 318.149 C 375.042 317.901,375.185 317.181,375.091 316.549 C 374.970 315.739,374.902 315.656,374.860 316.267 " stroke="none" fill="#8c8c8c" fill-rule="evenodd">
		</path>
		<path id="path4" d="M24.997 217.800 C 24.997 272.360,25.043 294.621,25.100 267.268 C 25.157 239.915,25.157 195.275,25.100 168.068 C 25.043 140.861,24.997 163.240,24.997 217.800 M50.791 120.983 C 53.197 125.558,57.196 128.105,62.200 128.251 L 65.000 128.333 62.200 128.036 C 56.577 127.438,52.137 124.157,50.649 119.500 C 50.526 119.115,50.249 118.800,50.034 118.800 C 49.819 118.800,50.159 119.782,50.791 120.983 M100.812 121.022 C 102.630 124.478,107.043 128.100,109.278 127.970 C 109.565 127.953,109.260 127.727,108.600 127.469 C 104.802 125.979,101.738 122.909,100.649 119.500 C 100.526 119.115,100.249 118.800,100.034 118.800 C 99.819 118.800,100.169 119.800,100.812 121.022 M69.985 125.417 C 69.704 125.757,68.737 126.381,67.837 126.803 C 66.936 127.225,66.427 127.577,66.705 127.585 C 66.983 127.593,67.613 127.375,68.104 127.100 C 69.446 126.349,71.315 124.800,70.880 124.800 C 70.670 124.800,70.267 125.078,69.985 125.417 M242.299 128.300 L 374.798 128.401 374.900 221.901 L 375.003 315.400 375.001 221.800 L 375.000 128.200 242.400 128.199 L 109.800 128.198 242.299 128.300 M71.738 159.506 C 71.484 159.668,72.952 159.800,75.000 159.800 C 77.048 159.800,78.516 159.668,78.262 159.506 C 78.008 159.344,76.540 159.212,75.000 159.212 C 73.460 159.212,71.992 159.344,71.738 159.506 M188.076 159.540 C 187.568 159.683,192.844 159.800,199.800 159.800 C 206.756 159.800,212.032 159.683,211.524 159.540 C 211.016 159.397,205.740 159.280,199.800 159.280 C 193.860 159.280,188.584 159.397,188.076 159.540 M271.738 159.506 C 271.484 159.668,272.952 159.800,275.000 159.800 C 277.048 159.800,278.516 159.668,278.262 159.506 C 278.008 159.344,276.540 159.212,275.000 159.212 C 273.460 159.212,271.992 159.344,271.738 159.506 M79.233 160.149 C 79.325 160.231,80.030 160.602,80.800 160.973 L 82.200 161.648 81.200 160.833 C 80.414 160.192,78.562 159.548,79.233 160.149 M184.200 160.394 C 183.760 160.580,183.059 160.842,182.643 160.976 C 182.226 161.110,181.963 161.297,182.059 161.392 C 182.154 161.487,183.305 161.223,184.616 160.804 C 185.976 160.370,186.570 160.045,186.000 160.049 C 185.450 160.052,184.640 160.207,184.200 160.394 M213.600 160.400 C 215.142 160.894,215.964 160.894,215.200 160.400 C 214.870 160.187,214.150 160.027,213.600 160.046 L 212.600 160.080 213.600 160.400 M279.233 160.149 C 279.325 160.231,280.030 160.602,280.800 160.973 L 282.200 161.648 281.200 160.833 C 280.414 160.192,278.562 159.548,279.233 160.149 M66.068 162.700 C 64.077 164.698,62.382 167.769,62.427 169.296 C 62.444 169.888,62.634 169.624,62.976 168.530 C 63.724 166.135,64.985 164.258,67.082 162.412 C 68.089 161.525,68.699 160.800,68.437 160.800 C 68.176 160.800,67.110 161.655,66.068 162.700 M266.068 162.700 C 264.077 164.698,262.382 167.769,262.427 169.296 C 262.444 169.888,262.634 169.624,262.976 168.530 C 263.724 166.135,264.985 164.258,267.082 162.412 C 268.089 161.525,268.699 160.800,268.437 160.800 C 268.176 160.800,267.110 161.655,266.068 162.700 M83.600 163.000 C 84.346 163.770,85.047 164.400,85.157 164.400 C 85.267 164.400,84.746 163.770,84.000 163.000 C 83.254 162.230,82.553 161.600,82.443 161.600 C 82.333 161.600,82.854 162.230,83.600 163.000 M179.814 162.124 C 172.170 166.754,167.825 171.283,164.873 177.696 C 163.305 181.101,163.964 180.689,165.666 177.200 C 168.829 170.717,172.708 166.670,179.252 163.027 C 180.654 162.247,181.530 161.618,181.200 161.628 C 180.870 161.639,180.246 161.861,179.814 162.124 M283.600 163.000 C 284.346 163.770,285.047 164.400,285.157 164.400 C 285.267 164.400,284.746 163.770,284.000 163.000 C 283.254 162.230,282.553 161.600,282.443 161.600 C 282.333 161.600,282.854 162.230,283.600 163.000 M222.390 163.888 C 222.934 164.280,224.149 165.184,225.090 165.897 C 226.030 166.611,226.793 167.061,226.784 166.897 C 226.765 166.528,223.751 164.298,222.400 163.654 L 221.400 163.177 222.390 163.888 M227.200 167.289 C 227.200 167.405,227.945 168.288,228.856 169.251 C 229.767 170.213,231.142 171.945,231.913 173.100 C 233.363 175.275,233.979 175.869,233.156 174.300 C 232.166 172.410,227.200 166.565,227.200 167.289 M87.058 169.200 C 87.375 170.925,87.602 171.251,87.594 169.967 C 87.591 169.435,87.411 168.730,87.194 168.400 C 86.918 167.978,86.877 168.215,87.058 169.200 M287.058 169.200 C 287.375 170.925,287.602 171.251,287.594 169.967 C 287.591 169.435,287.411 168.730,287.194 168.400 C 286.918 167.978,286.877 168.215,287.058 169.200 M235.212 179.200 C 235.212 179.530,235.387 180.070,235.600 180.400 C 235.945 180.933,235.988 180.933,235.988 180.400 C 235.988 180.070,235.813 179.530,235.600 179.200 C 235.255 178.667,235.212 178.667,235.212 179.200 M163.473 181.353 C 163.323 181.745,163.211 182.366,163.225 182.733 C 163.242 183.175,163.381 183.074,163.637 182.434 C 163.849 181.903,163.961 181.282,163.885 181.054 C 163.809 180.827,163.624 180.961,163.473 181.353 M236.034 181.600 C 236.046 181.930,236.211 182.560,236.400 183.000 L 236.744 183.800 236.766 183.000 C 236.778 182.560,236.613 181.930,236.400 181.600 C 236.055 181.067,236.015 181.067,236.034 181.600 M162.689 184.400 C 162.536 184.950,162.427 185.940,162.446 186.600 C 162.477 187.692,162.514 187.658,162.852 186.211 C 163.275 184.406,163.131 182.811,162.689 184.400 M121.000 184.800 C 120.496 185.017,120.422 185.144,120.800 185.144 C 121.130 185.144,121.760 184.989,122.200 184.800 C 122.704 184.583,122.778 184.456,122.400 184.456 C 122.070 184.456,121.440 184.611,121.000 184.800 M127.800 184.800 C 128.240 184.989,128.870 185.144,129.200 185.144 C 129.578 185.144,129.504 185.017,129.000 184.800 C 128.560 184.611,127.930 184.456,127.600 184.456 C 127.222 184.456,127.296 184.583,127.800 184.800 M191.400 184.800 C 191.108 185.273,191.499 185.273,192.600 184.800 C 193.371 184.469,193.369 184.455,192.524 184.428 C 192.042 184.413,191.536 184.580,191.400 184.800 M202.200 184.812 C 205.720 184.955,208.639 185.101,208.686 185.136 C 208.733 185.171,209.438 185.784,210.251 186.498 C 211.293 187.413,211.570 187.540,211.187 186.928 C 209.881 184.837,208.175 184.394,201.746 184.476 L 195.800 184.552 202.200 184.812 M237.076 186.600 C 237.205 187.920,237.376 189.075,237.456 189.167 C 237.763 189.521,237.525 185.757,237.192 185.000 C 236.969 184.492,236.926 185.076,237.076 186.600 M321.000 184.800 C 320.496 185.017,320.422 185.144,320.800 185.144 C 321.130 185.144,321.760 184.989,322.200 184.800 C 322.704 184.583,322.778 184.456,322.400 184.456 C 322.070 184.456,321.440 184.611,321.000 184.800 M327.800 184.800 C 328.240 184.989,328.870 185.144,329.200 185.144 C 329.578 185.144,329.504 185.017,329.000 184.800 C 328.560 184.611,327.930 184.456,327.600 184.456 C 327.222 184.456,327.296 184.583,327.800 184.800 M118.600 185.826 C 116.311 187.010,112.665 191.198,113.336 191.870 C 113.444 191.977,113.840 191.416,114.216 190.622 C 114.944 189.088,118.162 186.000,119.033 186.000 C 119.319 186.000,119.664 185.820,119.800 185.600 C 120.126 185.072,120.016 185.093,118.600 185.826 M130.000 185.332 C 130.000 185.415,130.810 185.996,131.800 186.622 C 132.790 187.248,133.600 187.904,133.600 188.080 C 133.600 188.256,133.825 188.394,134.100 188.386 C 134.375 188.378,134.060 187.918,133.400 187.365 C 132.203 186.360,130.000 185.043,130.000 185.332 M189.320 186.100 C 188.285 187.236,187.467 188.800,187.756 189.090 C 187.878 189.211,188.161 188.829,188.385 188.240 C 188.609 187.651,189.270 186.726,189.854 186.185 C 190.439 185.643,190.742 185.200,190.528 185.200 C 190.314 185.200,189.771 185.605,189.320 186.100 M318.600 185.826 C 316.311 187.010,312.665 191.198,313.336 191.870 C 313.444 191.977,313.840 191.416,314.216 190.622 C 314.944 189.088,318.162 186.000,319.033 186.000 C 319.319 186.000,319.664 185.820,319.800 185.600 C 320.126 185.072,320.016 185.093,318.600 185.826 M330.000 185.332 C 330.000 185.415,330.810 185.996,331.800 186.622 C 332.790 187.248,333.600 187.904,333.600 188.080 C 333.600 188.256,333.825 188.394,334.100 188.386 C 334.375 188.378,334.060 187.918,333.400 187.365 C 332.203 186.360,330.000 185.043,330.000 185.332 M211.634 188.400 C 211.646 188.730,211.811 189.360,212.000 189.800 L 212.344 190.600 212.366 189.800 C 212.378 189.360,212.213 188.730,212.000 188.400 C 211.655 187.867,211.615 187.867,211.634 188.400 M135.081 189.761 C 135.477 190.289,135.857 190.667,135.928 190.600 C 136.138 190.399,135.034 188.800,134.685 188.800 C 134.508 188.800,134.686 189.232,135.081 189.761 M335.081 189.761 C 335.477 190.289,335.857 190.667,335.928 190.600 C 336.138 190.399,335.034 188.800,334.685 188.800 C 334.508 188.800,334.686 189.232,335.081 189.761 M112.649 193.015 C 112.512 193.373,112.416 194.056,112.436 194.533 C 112.462 195.147,112.585 195.008,112.859 194.056 C 113.257 192.672,113.094 191.858,112.649 193.015 M312.649 193.015 C 312.512 193.373,312.416 194.056,312.436 194.533 C 312.462 195.147,312.585 195.008,312.859 194.056 C 313.257 192.672,313.094 191.858,312.649 193.015 M136.846 193.200 C 136.865 193.530,137.024 194.250,137.200 194.800 L 137.520 195.800 137.554 194.800 C 137.573 194.250,137.413 193.530,137.200 193.200 C 136.855 192.667,136.816 192.667,136.846 193.200 M336.846 193.200 C 336.865 193.530,337.024 194.250,337.200 194.800 L 337.520 195.800 337.554 194.800 C 337.573 194.250,337.413 193.530,337.200 193.200 C 336.855 192.667,336.816 192.667,336.846 193.200 M90.900 209.497 C 92.605 209.572,95.395 209.572,97.100 209.497 C 98.805 209.422,97.410 209.361,94.000 209.361 C 90.590 209.361,89.195 209.422,90.900 209.497 M290.900 209.497 C 292.605 209.572,295.395 209.572,297.100 209.497 C 298.805 209.422,297.410 209.361,294.000 209.361 C 290.590 209.361,289.195 209.422,290.900 209.497 M62.453 213.200 C 62.431 213.970,62.587 214.870,62.800 215.200 C 63.277 215.939,63.277 214.876,62.800 213.000 L 62.495 211.800 62.453 213.200 M262.453 213.200 C 262.431 213.970,262.587 214.870,262.800 215.200 C 263.277 215.939,263.277 214.876,262.800 213.000 L 262.495 211.800 262.453 213.200 M63.219 216.489 C 63.191 217.495,64.946 221.286,66.450 223.473 C 70.480 229.330,77.037 233.604,82.866 234.171 L 85.000 234.379 83.200 233.982 C 76.573 232.521,71.739 229.565,67.838 224.588 C 65.847 222.047,65.285 221.050,64.018 217.800 C 63.589 216.700,63.229 216.110,63.219 216.489 M263.219 216.489 C 263.191 217.495,264.946 221.286,266.450 223.473 C 270.480 229.330,277.037 233.604,282.866 234.171 L 285.000 234.379 283.200 233.982 C 276.573 232.521,271.739 229.565,267.838 224.588 C 265.847 222.047,265.285 221.050,264.018 217.800 C 263.589 216.700,263.229 216.110,263.219 216.489 M103.119 234.698 C 104.944 234.772,107.824 234.772,109.519 234.697 C 111.214 234.622,109.720 234.561,106.200 234.562 C 102.680 234.562,101.294 234.624,103.119 234.698 M303.119 234.698 C 304.944 234.772,307.824 234.772,309.519 234.697 C 311.214 234.622,309.720 234.561,306.200 234.562 C 302.680 234.562,301.294 234.624,303.119 234.698 M211.844 254.400 C 211.454 256.204,210.404 257.468,208.513 258.413 C 207.681 258.828,207.288 259.175,207.641 259.184 C 209.502 259.230,212.611 255.715,212.303 253.913 C 212.175 253.161,212.094 253.247,211.844 254.400 M237.270 255.450 C 237.231 256.137,237.105 257.308,236.989 258.050 C 236.796 259.286,236.815 259.317,237.208 258.414 C 237.444 257.872,237.571 256.702,237.489 255.814 C 237.368 254.502,237.327 254.433,237.270 255.450 M162.453 257.400 C 162.431 258.280,162.587 259.270,162.800 259.600 C 163.275 260.336,163.275 258.868,162.800 257.000 C 162.506 255.844,162.493 255.859,162.453 257.400 M193.905 259.483 C 194.402 259.579,195.122 259.575,195.505 259.475 C 195.887 259.375,195.480 259.296,194.600 259.301 C 193.720 259.305,193.407 259.387,193.905 259.483 M163.230 261.500 C 163.261 262.243,164.720 265.628,164.770 265.075 C 164.811 264.626,163.544 260.800,163.354 260.800 C 163.269 260.800,163.213 261.115,163.230 261.500 M234.232 266.702 C 232.824 269.655,229.798 273.715,227.224 276.106 C 225.781 277.446,225.141 278.170,225.801 277.715 C 229.041 275.480,235.988 266.255,235.100 265.366 C 235.014 265.280,234.623 265.882,234.232 266.702 M164.800 265.820 C 164.800 266.943,168.597 272.478,171.251 275.223 C 176.095 280.234,184.790 284.512,189.800 284.349 C 190.498 284.327,189.912 284.108,188.400 283.826 C 178.623 282.006,169.611 275.322,165.849 267.100 C 165.231 265.749,164.800 265.223,164.800 265.820 M137.249 273.600 C 137.216 273.930,137.089 274.650,136.967 275.200 C 136.775 276.064,136.807 276.103,137.199 275.488 C 137.448 275.097,137.575 274.377,137.481 273.888 C 137.386 273.400,137.282 273.270,137.249 273.600 M337.249 273.600 C 337.216 273.930,337.089 274.650,336.967 275.200 C 336.775 276.064,336.807 276.103,337.199 275.488 C 337.448 275.097,337.575 274.377,337.481 273.888 C 337.386 273.400,337.282 273.270,337.249 273.600 M112.446 274.400 C 112.427 274.950,112.587 275.670,112.800 276.000 C 113.294 276.764,113.294 275.942,112.800 274.400 L 112.480 273.400 112.446 274.400 M312.446 274.400 C 312.427 274.950,312.587 275.670,312.800 276.000 C 313.294 276.764,313.294 275.942,312.800 274.400 L 312.480 273.400 312.446 274.400 M113.200 277.185 C 113.200 278.581,118.695 283.602,120.200 283.581 C 120.420 283.578,120.240 283.380,119.800 283.141 C 117.446 281.861,115.845 280.473,114.721 278.737 C 113.435 276.753,113.200 276.513,113.200 277.185 M313.200 277.185 C 313.200 278.581,318.695 283.602,320.200 283.581 C 320.420 283.578,320.240 283.380,319.800 283.141 C 317.446 281.861,315.845 280.473,314.721 278.737 C 313.435 276.753,313.200 276.513,313.200 277.185 M135.006 279.088 L 134.304 280.200 135.230 279.311 C 135.739 278.822,136.055 278.322,135.932 278.199 C 135.809 278.076,135.392 278.476,135.006 279.088 M335.006 279.088 L 334.304 280.200 335.230 279.311 C 335.739 278.822,336.055 278.322,335.932 278.199 C 335.809 278.076,335.392 278.476,335.006 279.088 M221.200 280.433 L 220.200 281.248 221.500 280.614 C 222.215 280.265,222.800 279.894,222.800 279.790 C 222.800 279.392,222.163 279.648,221.200 280.433 M132.436 281.757 C 132.181 282.063,131.434 282.538,130.774 282.811 C 130.114 283.084,129.653 283.387,129.750 283.483 C 130.007 283.741,132.173 282.556,132.778 281.826 C 133.064 281.482,133.208 281.200,133.098 281.200 C 132.988 281.200,132.690 281.451,132.436 281.757 M217.800 282.029 C 216.920 282.452,216.650 282.686,217.200 282.549 C 218.333 282.267,220.412 281.225,219.800 281.246 C 219.580 281.253,218.680 281.606,217.800 282.029 M332.436 281.757 C 332.181 282.063,331.434 282.538,330.774 282.811 C 330.114 283.084,329.653 283.387,329.750 283.483 C 330.007 283.741,332.173 282.556,332.778 281.826 C 333.064 281.482,333.208 281.200,333.098 281.200 C 332.988 281.200,332.690 281.451,332.436 281.757 M214.200 283.200 C 213.696 283.417,213.622 283.544,214.000 283.544 C 214.330 283.544,214.960 283.389,215.400 283.200 C 215.904 282.983,215.978 282.856,215.600 282.856 C 215.270 282.856,214.640 283.011,214.200 283.200 M121.200 284.000 C 121.530 284.213,122.160 284.378,122.600 284.366 L 123.400 284.344 122.600 284.000 C 121.404 283.486,120.405 283.486,121.200 284.000 M127.400 284.000 L 126.600 284.344 127.400 284.366 C 127.840 284.378,128.470 284.213,128.800 284.000 C 129.595 283.486,128.596 283.486,127.400 284.000 M210.200 284.000 L 209.000 284.305 210.200 284.325 C 210.860 284.335,211.760 284.189,212.200 284.000 L 213.000 283.656 212.200 283.675 C 211.760 283.686,210.860 283.832,210.200 284.000 M321.200 284.000 C 321.530 284.213,322.160 284.378,322.600 284.366 L 323.400 284.344 322.600 284.000 C 321.404 283.486,320.405 283.486,321.200 284.000 M327.400 284.000 L 326.600 284.344 327.400 284.366 C 327.840 284.378,328.470 284.213,328.800 284.000 C 329.595 283.486,328.596 283.486,327.400 284.000 M374.267 317.067 C 374.120 317.213,374.000 317.571,374.000 317.862 C 374.000 318.693,372.736 319.994,371.116 320.832 C 369.660 321.586,366.453 321.600,199.770 321.600 L 29.909 321.600 28.388 320.745 C 27.551 320.275,26.545 319.292,26.151 318.561 C 25.757 317.830,25.362 317.305,25.272 317.395 C 24.856 317.810,26.924 320.322,28.335 321.115 L 29.909 322.000 199.706 322.000 C 384.300 322.000,371.079 322.160,373.221 319.902 C 374.382 318.679,375.391 315.943,374.267 317.067 " stroke="none" fill="#a4a4a4" fill-rule="evenodd">
		</path>
	</g>
</svg>
