<svg width="1em" height="1em" fill="#fff" xmlns="http://www.w3.org/2000/svg" viewBox="0 0 32 32"><path d="M18.709 16.142a3.006 3.006 0 1 1-6.012 0 3.006 3.006 0 0 1 6.012 0z"/><path d="M22.732 10.824a2.794 2.794 0 0 0-.675-1.037 2.787 2.787 0 0 0-1.036-.674c-.318-.123-.795-.27-1.675-.31-.95-.044-1.236-.053-3.643-.053-2.408 0-2.693.01-3.644.052-.879.04-1.356.188-1.674.311a2.79 2.79 0 0 0-1.037.674c-.3.291-.53.645-.674 1.037-.124.318-.27.796-.31 1.675-.044.95-.053 1.236-.053 3.643 0 2.408.009 2.693.052 3.644.04.88.187 1.356.31 1.674.145.392.376.746.675 1.037.29.3.645.53 1.037.674.318.124.795.27 1.674.31.95.044 1.236.053 3.644.053 2.408 0 2.693-.009 3.643-.052.88-.04 1.357-.187 1.675-.31a2.986 2.986 0 0 0 1.71-1.712c.124-.318.271-.795.311-1.674.044-.951.053-1.236.053-3.644 0-2.407-.01-2.693-.053-3.643-.04-.88-.186-1.357-.31-1.675zm-7.03 9.948a4.63 4.63 0 1 1 0-9.26 4.63 4.63 0 0 1 0 9.26zm4.814-8.361a1.082 1.082 0 1 1 0-2.164 1.082 1.082 0 0 1 0 2.164z"/><path d="M15.703.44C7.032.44 0 7.47 0 16.141s7.032 15.703 15.703 15.703c8.67 0 15.703-7.032 15.703-15.703S24.374.439 15.703.439zm8.962 19.42c-.043.96-.196 1.615-.419 2.188a4.611 4.611 0 0 1-2.637 2.637c-.573.223-1.229.376-2.189.42-.961.043-1.268.054-3.717.054s-2.756-.01-3.718-.055c-.96-.043-1.615-.196-2.188-.419a4.418 4.418 0 0 1-1.597-1.04 4.42 4.42 0 0 1-1.04-1.597c-.223-.573-.376-1.229-.42-2.188-.044-.962-.054-1.27-.054-3.718 0-2.449.01-2.756.054-3.717.044-.96.196-1.616.42-2.19A4.417 4.417 0 0 1 8.2 8.64c.45-.46.995-.814 1.597-1.04.573-.223 1.228-.376 2.188-.42.962-.043 1.269-.054 3.718-.054s2.756.01 3.717.055c.96.043 1.615.196 2.19.418a4.42 4.42 0 0 1 1.596 1.04c.459.451.814.996 1.04 1.598.223.573.376 1.229.42 2.188.043.962.054 1.27.054 3.718 0 2.449-.01 2.756-.055 3.718z"/></svg>