<svg width="1em" height="1em" fill="#fff" xmlns="http://www.w3.org/2000/svg" viewBox="0 0 32 32"><path d="M15.703 0C7.032 0 0 7.032 0 15.703c0 8.67 7.032 15.703 15.703 15.703 8.67 0 15.703-7.032 15.703-15.703S24.374 0 15.703 0zM11.14 23.738H7.315V12.233h3.825v11.505zM9.228 10.662h-.025c-1.284 0-2.114-.884-2.114-1.988 0-1.13.856-1.988 2.164-1.988 1.308 0 2.113.859 2.138 1.988 0 1.104-.83 1.988-2.163 1.988zM24.93 23.738h-3.824v-6.155c0-1.547-.554-2.602-1.938-2.602-1.056 0-1.685.712-1.962 1.399-.101.245-.126.59-.126.933v6.425h-3.824s.05-10.426 0-11.505h3.824v1.629c.509-.784 1.418-1.9 3.447-1.9 2.516 0 4.402 1.645 4.402 5.179v6.597z"/></svg>